<?xml version="1.0" encoding="UTF-8" standalone="no"?>
<svg
   xmlns:dc="http://purl.org/dc/elements/1.1/"
   xmlns:cc="http://creativecommons.org/ns#"
   xmlns:rdf="http://www.w3.org/1999/02/22-rdf-syntax-ns#"
   xmlns:svg="http://www.w3.org/2000/svg"
   xmlns="http://www.w3.org/2000/svg"
   xmlns:sodipodi="http://sodipodi.sourceforge.net/DTD/sodipodi-0.dtd"
   xmlns:inkscape="http://www.inkscape.org/namespaces/inkscape"
   role="img"
   width="48px"
   height="48px"
   viewBox="0 0 24 24"
   aria-labelledby="peopleIconTitle"
   stroke="#2329D6"
   stroke-width="1"
   stroke-linecap="square"
   stroke-linejoin="miter"
   fill="none"
   color="#2329D6"
   version="1.1"
   id="svg7"
   sodipodi:docname="people.svg"
   inkscape:version="0.92.5 (2060ec1f9f, 2020-04-08)">
  <metadata
     id="metadata13">
    <rdf:RDF>
      <cc:Work
         rdf:about="">
        <dc:format>image/svg+xml</dc:format>
        <dc:type
           rdf:resource="http://purl.org/dc/dcmitype/StillImage" />
      </cc:Work>
    </rdf:RDF>
  </metadata>
  <defs
     id="defs11" />
  <sodipodi:namedview
     pagecolor="#ffffff"
     bordercolor="#666666"
     borderopacity="1"
     objecttolerance="10"
     gridtolerance="10"
     guidetolerance="10"
     inkscape:pageopacity="0"
     inkscape:pageshadow="2"
     inkscape:window-width="1848"
     inkscape:window-height="1016"
     id="namedview9"
     showgrid="false"
     inkscape:zoom="4.9166667"
     inkscape:cx="24"
     inkscape:cy="24"
     inkscape:window-x="72"
     inkscape:window-y="27"
     inkscape:window-maximized="1"
     inkscape:current-layer="svg7" />
  <title
     id="peopleIconTitle">People</title>
  <path
     d="M1 18C1 15.75 4 15.75 5.5 14.25 6.25 13.5 4 13.5 4 9.75 4 7.25025 4.99975 6 7 6 9.00025 6 10 7.25025 10 9.75 10 13.5 7.75 13.5 8.5 14.25 10 15.75 13 15.75 13 18M12.7918114 15.7266684C13.2840551 15.548266 13.6874862 15.3832994 14.0021045 15.2317685 14.552776 14.9665463 15.0840574 14.6659426 15.5 14.25 16.25 13.5 14 13.5 14 9.75 14 7.25025 14.99975 6 17 6 19.00025 6 20 7.25025 20 9.75 20 13.5 17.75 13.5 18.5 14.25 20 15.75 23 15.75 23 18"
     id="path3"
     style="stroke:#ffffff;stroke-opacity:1" />
  <path
     stroke-linecap="round"
     d="M12,16 C12.3662741,15.8763472 12.6302112,15.7852366 12.7918114,15.7266684"
     id="path5"
     style="stroke:#ffffff;stroke-opacity:1" />
</svg>
